<?xml version="1.0" encoding="UTF-8" standalone="no"?><!DOCTYPE svg PUBLIC "-//W3C//DTD SVG 1.1//EN" "http://www.w3.org/Graphics/SVG/1.1/DTD/svg11.dtd"><!-- Generated by graphviz version 2.40.1 (20161225.0304)
 --><!-- Title: snakemake_dag Pages: 1 --><svg xmlns="http://www.w3.org/2000/svg" xmlns:xlink="http://www.w3.org/1999/xlink" width="305pt" height="476pt" viewBox="0.00 0.00 304.86 476.00">
<g id="graph0" class="graph" transform="scale(1 1) rotate(0) translate(4 472)">
<title>snakemake_dag</title>
<polygon fill="#ffffff" stroke="transparent" points="-4,4 -4,-472 300.8609,-472 300.8609,4 -4,4"/>
<!-- 0 -->
<g id="node1" class="node">
<title>0</title>
<path fill="none" stroke="#b6d856" stroke-width="2" d="M115.3339,-36C115.3339,-36 85.3339,-36 85.3339,-36 79.3339,-36 73.3339,-30 73.3339,-24 73.3339,-24 73.3339,-12 73.3339,-12 73.3339,-6 79.3339,0 85.3339,0 85.3339,0 115.3339,0 115.3339,0 121.3339,0 127.3339,-6 127.3339,-12 127.3339,-12 127.3339,-24 127.3339,-24 127.3339,-30 121.3339,-36 115.3339,-36"/>
<text text-anchor="middle" x="100.3339" y="-15" font-family="sans" font-size="10.00" fill="#000000">all</text>
</g>
<!-- 1 -->
<g id="node2" class="node">
<title>1</title>
<path fill="none" stroke="#d8b456" stroke-width="2" d="M126.3149,-108C126.3149,-108 74.3529,-108 74.3529,-108 68.3529,-108 62.3529,-102 62.3529,-96 62.3529,-96 62.3529,-84 62.3529,-84 62.3529,-78 68.3529,-72 74.3529,-72 74.3529,-72 126.3149,-72 126.3149,-72 132.3149,-72 138.3149,-78 138.3149,-84 138.3149,-84 138.3149,-96 138.3149,-96 138.3149,-102 132.3149,-108 126.3149,-108"/>
<text text-anchor="middle" x="100.3339" y="-87" font-family="sans" font-size="10.00" fill="#000000">call_consensus</text>
</g>
<!-- 1&#45;&gt;0 -->
<g id="edge1" class="edge">
<title>1-&gt;0</title>
<path fill="none" stroke="#c0c0c0" stroke-width="2" d="M100.3339,-71.8314C100.3339,-64.131 100.3339,-54.9743 100.3339,-46.4166"/>
<polygon fill="#c0c0c0" stroke="#c0c0c0" stroke-width="2" points="103.834,-46.4132 100.3339,-36.4133 96.834,-46.4133 103.834,-46.4132"/>
</g>
<!-- 2 -->
<g id="node3" class="node">
<title>2</title>
<path fill="none" stroke="#d85656" stroke-width="2" d="M156.9069,-180C156.9069,-180 43.7609,-180 43.7609,-180 37.7609,-180 31.7609,-174 31.7609,-168 31.7609,-168 31.7609,-156 31.7609,-156 31.7609,-150 37.7609,-144 43.7609,-144 43.7609,-144 156.9069,-144 156.9069,-144 162.9069,-144 168.9069,-150 168.9069,-156 168.9069,-156 168.9069,-168 168.9069,-168 168.9069,-174 162.9069,-180 156.9069,-180"/>
<text text-anchor="middle" x="100.3339" y="-159" font-family="sans" font-size="10.00" fill="#000000">align_and_normalize_variants</text>
</g>
<!-- 2&#45;&gt;1 -->
<g id="edge2" class="edge">
<title>2-&gt;1</title>
<path fill="none" stroke="#c0c0c0" stroke-width="2" d="M100.3339,-143.8314C100.3339,-136.131 100.3339,-126.9743 100.3339,-118.4166"/>
<polygon fill="#c0c0c0" stroke="#c0c0c0" stroke-width="2" points="103.834,-118.4132 100.3339,-108.4133 96.834,-118.4133 103.834,-118.4132"/>
</g>
<!-- 3 -->
<g id="node4" class="node">
<title>3</title>
<path fill="none" stroke="#56b9d8" stroke-width="2" d="M128.4219,-252C128.4219,-252 80.2458,-252 80.2458,-252 74.2458,-252 68.2458,-246 68.2458,-240 68.2458,-240 68.2458,-228 68.2458,-228 68.2458,-222 74.2458,-216 80.2458,-216 80.2458,-216 128.4219,-216 128.4219,-216 134.4219,-216 140.4219,-222 140.4219,-228 140.4219,-228 140.4219,-240 140.4219,-240 140.4219,-246 134.4219,-252 128.4219,-252"/>
<text text-anchor="middle" x="104.3339" y="-231" font-family="sans" font-size="10.00" fill="#000000">filter_variants</text>
</g>
<!-- 3&#45;&gt;2 -->
<g id="edge5" class="edge">
<title>3-&gt;2</title>
<path fill="none" stroke="#c0c0c0" stroke-width="2" d="M103.3245,-215.8314C102.8967,-208.131 102.388,-198.9743 101.9126,-190.4166"/>
<polygon fill="#c0c0c0" stroke="#c0c0c0" stroke-width="2" points="105.4062,-190.2037 101.3568,-180.4133 98.417,-190.592 105.4062,-190.2037"/>
</g>
<!-- 4 -->
<g id="node5" class="node">
<title>4</title>
<path fill="none" stroke="#97d856" stroke-width="2" d="M190.3557,-324C190.3557,-324 78.312,-324 78.312,-324 72.312,-324 66.312,-318 66.312,-312 66.312,-312 66.312,-300 66.312,-300 66.312,-294 72.312,-288 78.312,-288 78.312,-288 190.3557,-288 190.3557,-288 196.3557,-288 202.3557,-294 202.3557,-300 202.3557,-300 202.3557,-312 202.3557,-312 202.3557,-318 196.3557,-324 190.3557,-324"/>
<text text-anchor="middle" x="134.3339" y="-303" font-family="sans" font-size="10.00" fill="#000000">call_variants_from_alignment</text>
</g>
<!-- 4&#45;&gt;3 -->
<g id="edge7" class="edge">
<title>4-&gt;3</title>
<path fill="none" stroke="#c0c0c0" stroke-width="2" d="M126.7636,-287.8314C123.4846,-279.9617 119.5719,-270.5712 115.9394,-261.8533"/>
<polygon fill="#c0c0c0" stroke="#c0c0c0" stroke-width="2" points="119.0831,-260.2979 112.0061,-252.4133 112.6215,-262.9902 119.0831,-260.2979"/>
</g>
<!-- 5 -->
<g id="node6" class="node">
<title>5</title>
<path fill="none" stroke="#56d8d8" stroke-width="2" d="M169.9866,-396C169.9866,-396 116.6811,-396 116.6811,-396 110.6811,-396 104.6811,-390 104.6811,-384 104.6811,-384 104.6811,-372 104.6811,-372 104.6811,-366 110.6811,-360 116.6811,-360 116.6811,-360 169.9866,-360 169.9866,-360 175.9866,-360 181.9866,-366 181.9866,-372 181.9866,-372 181.9866,-384 181.9866,-384 181.9866,-390 175.9866,-396 169.9866,-396"/>
<text text-anchor="middle" x="143.3339" y="-375" font-family="sans" font-size="10.00" fill="#000000">alignment_bwa</text>
</g>
<!-- 5&#45;&gt;4 -->
<g id="edge8" class="edge">
<title>5-&gt;4</title>
<path fill="none" stroke="#c0c0c0" stroke-width="2" d="M141.0628,-359.8314C140.1002,-352.131 138.9557,-342.9743 137.886,-334.4166"/>
<polygon fill="#c0c0c0" stroke="#c0c0c0" stroke-width="2" points="141.3489,-333.9019 136.6355,-324.4133 134.403,-334.7702 141.3489,-333.9019"/>
</g>
<!-- 7 -->
<g id="node8" class="node">
<title>7</title>
<path fill="none" stroke="#d89556" stroke-width="2" d="M284.8879,-252C284.8879,-252 171.7799,-252 171.7799,-252 165.7799,-252 159.7799,-246 159.7799,-240 159.7799,-240 159.7799,-228 159.7799,-228 159.7799,-222 165.7799,-216 171.7799,-216 171.7799,-216 284.8879,-216 284.8879,-216 290.8879,-216 296.8879,-222 296.8879,-228 296.8879,-228 296.8879,-240 296.8879,-240 296.8879,-246 290.8879,-252 284.8879,-252"/>
<text text-anchor="middle" x="228.3339" y="-231" font-family="sans" font-size="10.00" fill="#000000">generate_low_coverage_mask</text>
</g>
<!-- 5&#45;&gt;7 -->
<g id="edge11" class="edge">
<title>5-&gt;7</title>
<path fill="none" stroke="#c0c0c0" stroke-width="2" d="M175.0413,-359.9267C188.2484,-350.8135 202.5293,-338.5832 211.3339,-324 222.5847,-305.365 226.6641,-280.9243 228.0246,-262.2157"/>
<polygon fill="#c0c0c0" stroke="#c0c0c0" stroke-width="2" points="231.5205,-262.3842 228.5372,-252.218 224.5297,-262.0257 231.5205,-262.3842"/>
</g>
<!-- 6 -->
<g id="node7" class="node">
<title>6</title>
<path fill="none" stroke="#56d87b" stroke-width="2" stroke-dasharray="5,2" d="M69.3339,-468C69.3339,-468 39.3339,-468 39.3339,-468 33.3339,-468 27.3339,-462 27.3339,-456 27.3339,-456 27.3339,-444 27.3339,-444 27.3339,-438 33.3339,-432 39.3339,-432 39.3339,-432 69.3339,-432 69.3339,-432 75.3339,-432 81.3339,-438 81.3339,-444 81.3339,-444 81.3339,-456 81.3339,-456 81.3339,-462 75.3339,-468 69.3339,-468"/>
<text text-anchor="middle" x="54.3339" y="-447" font-family="sans" font-size="10.00" fill="#000000">reference</text>
</g>
<!-- 6&#45;&gt;1 -->
<g id="edge4" class="edge">
<title>6-&gt;1</title>
<path fill="none" stroke="#c0c0c0" stroke-width="2" d="M42.6167,-431.7256C26.7348,-405.1531 .3339,-353.793 .3339,-306 .3339,-306 .3339,-306 .3339,-234 .3339,-192.8223 -1.0016,-177.9273 22.3339,-144 30.5956,-131.9883 42.4693,-121.8271 54.4694,-113.6729"/>
<polygon fill="#c0c0c0" stroke="#c0c0c0" stroke-width="2" points="56.6478,-116.434 63.1798,-108.0923 52.8716,-110.5399 56.6478,-116.434"/>
</g>
<!-- 6&#45;&gt;2 -->
<g id="edge6" class="edge">
<title>6-&gt;2</title>
<path fill="none" stroke="#c0c0c0" stroke-width="2" d="M50.9725,-431.7074C44.3521,-391.3622 32.4752,-292.2713 59.3339,-216 62.8527,-206.0075 68.9648,-196.3668 75.4118,-188.0656"/>
<polygon fill="#c0c0c0" stroke="#c0c0c0" stroke-width="2" points="78.2039,-190.1815 81.8869,-180.2474 72.8128,-185.7165 78.2039,-190.1815"/>
</g>
<!-- 6&#45;&gt;4 -->
<g id="edge9" class="edge">
<title>6-&gt;4</title>
<path fill="none" stroke="#c0c0c0" stroke-width="2" d="M61.3431,-431.8907C68.808,-413.3355 81.4433,-383.9002 95.3339,-360 100.7381,-350.7015 107.3627,-341.0324 113.6079,-332.4891"/>
<polygon fill="#c0c0c0" stroke="#c0c0c0" stroke-width="2" points="116.4873,-334.4828 119.6673,-324.3765 110.879,-330.2939 116.4873,-334.4828"/>
</g>
<!-- 6&#45;&gt;5 -->
<g id="edge10" class="edge">
<title>6-&gt;5</title>
<path fill="none" stroke="#c0c0c0" stroke-width="2" d="M76.7923,-431.8314C87.7544,-422.9632 101.1038,-412.1637 112.9604,-402.5718"/>
<polygon fill="#c0c0c0" stroke="#c0c0c0" stroke-width="2" points="115.3094,-405.1734 120.8826,-396.1628 110.9068,-399.7313 115.3094,-405.1734"/>
</g>
<!-- 7&#45;&gt;1 -->
<g id="edge3" class="edge">
<title>7-&gt;1</title>
<path fill="none" stroke="#c0c0c0" stroke-width="2" d="M221.2289,-215.9004C213.0011,-196.5494 198.017,-165.7229 178.3339,-144 167.9107,-132.4967 154.5899,-122.1442 141.9179,-113.6543"/>
<polygon fill="#c0c0c0" stroke="#c0c0c0" stroke-width="2" points="143.5914,-110.5686 133.2922,-108.083 139.7934,-116.4487 143.5914,-110.5686"/>
</g>
<!-- 8 -->
<g id="node9" class="node">
<title>8</title>
<path fill="none" stroke="#56d87b" stroke-width="2" stroke-dasharray="5,2" d="M149.3339,-468C149.3339,-468 119.3339,-468 119.3339,-468 113.3339,-468 107.3339,-462 107.3339,-456 107.3339,-456 107.3339,-444 107.3339,-444 107.3339,-438 113.3339,-432 119.3339,-432 119.3339,-432 149.3339,-432 149.3339,-432 155.3339,-432 161.3339,-438 161.3339,-444 161.3339,-444 161.3339,-456 161.3339,-456 161.3339,-462 155.3339,-468 149.3339,-468"/>
<text text-anchor="middle" x="134.3339" y="-447" font-family="sans" font-size="10.00" fill="#000000">read1</text>
</g>
<!-- 8&#45;&gt;5 -->
<g id="edge12" class="edge">
<title>8-&gt;5</title>
<path fill="none" stroke="#c0c0c0" stroke-width="2" d="M136.605,-431.8314C137.5675,-424.131 138.7121,-414.9743 139.7818,-406.4166"/>
<polygon fill="#c0c0c0" stroke="#c0c0c0" stroke-width="2" points="143.2648,-406.7702 141.0322,-396.4133 136.3188,-405.9019 143.2648,-406.7702"/>
</g>
<!-- 9 -->
<g id="node10" class="node">
<title>9</title>
<path fill="none" stroke="#56d87b" stroke-width="2" stroke-dasharray="5,2" d="M221.3339,-468C221.3339,-468 191.3339,-468 191.3339,-468 185.3339,-468 179.3339,-462 179.3339,-456 179.3339,-456 179.3339,-444 179.3339,-444 179.3339,-438 185.3339,-432 191.3339,-432 191.3339,-432 221.3339,-432 221.3339,-432 227.3339,-432 233.3339,-438 233.3339,-444 233.3339,-444 233.3339,-456 233.3339,-456 233.3339,-462 227.3339,-468 221.3339,-468"/>
<text text-anchor="middle" x="206.3339" y="-447" font-family="sans" font-size="10.00" fill="#000000">read2</text>
</g>
<!-- 9&#45;&gt;5 -->
<g id="edge13" class="edge">
<title>9-&gt;5</title>
<path fill="none" stroke="#c0c0c0" stroke-width="2" d="M190.4363,-431.8314C183.1061,-423.454 174.2679,-413.3531 166.2369,-404.1749"/>
<polygon fill="#c0c0c0" stroke="#c0c0c0" stroke-width="2" points="168.6646,-401.6343 159.4455,-396.4133 163.3965,-406.2438 168.6646,-401.6343"/>
</g>
</g>
</svg>