<?xml version="1.0" encoding="UTF-8" standalone="no"?><!DOCTYPE svg PUBLIC "-//W3C//DTD SVG 1.1//EN" "http://www.w3.org/Graphics/SVG/1.1/DTD/svg11.dtd"><!-- Generated by graphviz version 2.40.1 (20161225.0304)
 --><!-- Title: snakemake_dag Pages: 1 --><svg xmlns="http://www.w3.org/2000/svg" xmlns:xlink="http://www.w3.org/1999/xlink" width="344pt" height="620pt" viewBox="0.00 0.00 343.78 620.00">
<g id="graph0" class="graph" transform="scale(1 1) rotate(0) translate(4 616)">
<title>snakemake_dag</title>
<polygon fill="#ffffff" stroke="transparent" points="-4,4 -4,-616 339.7765,-616 339.7765,4 -4,4"/>
<!-- 0 -->
<g id="node1" class="node">
<title>0</title>
<path fill="none" stroke="#d87556" stroke-width="2" d="M145.363,-36C145.363,-36 115.363,-36 115.363,-36 109.363,-36 103.363,-30 103.363,-24 103.363,-24 103.363,-12 103.363,-12 103.363,-6 109.363,0 115.363,0 115.363,0 145.363,0 145.363,0 151.363,0 157.363,-6 157.363,-12 157.363,-12 157.363,-24 157.363,-24 157.363,-30 151.363,-36 145.363,-36"/>
<text text-anchor="middle" x="130.363" y="-15" font-family="sans" font-size="10.00" fill="#000000">all</text>
</g>
<!-- 1 -->
<g id="node2" class="node">
<title>1</title>
<path fill="none" stroke="#567bd8" stroke-width="2" d="M174.431,-108C174.431,-108 86.295,-108 86.295,-108 80.295,-108 74.295,-102 74.295,-96 74.295,-96 74.295,-84 74.295,-84 74.295,-78 80.295,-72 86.295,-72 86.295,-72 174.431,-72 174.431,-72 180.431,-72 186.431,-78 186.431,-84 186.431,-84 186.431,-96 186.431,-96 186.431,-102 180.431,-108 174.431,-108"/>
<text text-anchor="middle" x="130.363" y="-87" font-family="sans" font-size="10.00" fill="#000000">move_tree_and_rename</text>
</g>
<!-- 1&#45;&gt;0 -->
<g id="edge1" class="edge">
<title>1-&gt;0</title>
<path fill="none" stroke="#c0c0c0" stroke-width="2" d="M130.363,-71.8314C130.363,-64.131 130.363,-54.9743 130.363,-46.4166"/>
<polygon fill="#c0c0c0" stroke="#c0c0c0" stroke-width="2" points="133.8631,-46.4132 130.363,-36.4133 126.8631,-46.4133 133.8631,-46.4132"/>
</g>
<!-- 2 -->
<g id="node3" class="node">
<title>2</title>
<path fill="none" stroke="#56d8a9" stroke-width="2" d="M132.2132,-180C132.2132,-180 86.5128,-180 86.5128,-180 80.5128,-180 74.5128,-174 74.5128,-168 74.5128,-168 74.5128,-156 74.5128,-156 74.5128,-150 80.5128,-144 86.5128,-144 86.5128,-144 132.2132,-144 132.2132,-144 138.2132,-144 144.2132,-150 144.2132,-156 144.2132,-156 144.2132,-168 144.2132,-168 144.2132,-174 138.2132,-180 132.2132,-180"/>
<text text-anchor="middle" x="109.363" y="-159" font-family="sans" font-size="10.00" fill="#000000">generate_tree</text>
</g>
<!-- 2&#45;&gt;1 -->
<g id="edge4" class="edge">
<title>2-&gt;1</title>
<path fill="none" stroke="#c0c0c0" stroke-width="2" d="M114.6622,-143.8314C116.9328,-136.0463 119.6376,-126.7729 122.157,-118.1347"/>
<polygon fill="#c0c0c0" stroke="#c0c0c0" stroke-width="2" points="125.5524,-118.9933 124.9925,-108.4133 118.8324,-117.0332 125.5524,-118.9933"/>
</g>
<!-- 3 -->
<g id="node4" class="node">
<title>3</title>
<path fill="none" stroke="#d89c56" stroke-width="2" d="M143.5117,-252C143.5117,-252 75.2143,-252 75.2143,-252 69.2143,-252 63.2143,-246 63.2143,-240 63.2143,-240 63.2143,-228 63.2143,-228 63.2143,-222 69.2143,-216 75.2143,-216 75.2143,-216 143.5117,-216 143.5117,-216 149.5117,-216 155.5117,-222 155.5117,-228 155.5117,-228 155.5117,-240 155.5117,-240 155.5117,-246 149.5117,-252 143.5117,-252"/>
<text text-anchor="middle" x="109.363" y="-231" font-family="sans" font-size="10.00" fill="#000000">sparsify_alignment</text>
</g>
<!-- 3&#45;&gt;0 -->
<g id="edge2" class="edge">
<title>3-&gt;0</title>
<path fill="none" stroke="#c0c0c0" stroke-width="2" d="M88.9604,-215.5625C79.8689,-205.9675 70.1468,-193.4441 65.363,-180 49.2717,-134.7775 44.9706,-115.4529 65.363,-72 71.6825,-58.5342 83.1922,-47.2644 94.7896,-38.5633"/>
<polygon fill="#c0c0c0" stroke="#c0c0c0" stroke-width="2" points="96.9953,-41.2915 103.1768,-32.6868 92.9786,-35.5586 96.9953,-41.2915"/>
</g>
<!-- 3&#45;&gt;2 -->
<g id="edge5" class="edge">
<title>3-&gt;2</title>
<path fill="none" stroke="#c0c0c0" stroke-width="2" d="M109.363,-215.8314C109.363,-208.131 109.363,-198.9743 109.363,-190.4166"/>
<polygon fill="#c0c0c0" stroke="#c0c0c0" stroke-width="2" points="112.8631,-190.4132 109.363,-180.4133 105.8631,-190.4133 112.8631,-190.4132"/>
</g>
<!-- 4 -->
<g id="node5" class="node">
<title>4</title>
<path fill="none" stroke="#ced856" stroke-width="2" d="M167.36,-324C167.36,-324 125.366,-324 125.366,-324 119.366,-324 113.366,-318 113.366,-312 113.366,-312 113.366,-300 113.366,-300 113.366,-294 119.366,-288 125.366,-288 125.366,-288 167.36,-288 167.36,-288 173.36,-288 179.36,-294 179.36,-300 179.36,-300 179.36,-312 179.36,-312 179.36,-318 173.36,-324 167.36,-324"/>
<text text-anchor="middle" x="146.363" y="-303" font-family="sans" font-size="10.00" fill="#000000">run_gubbins</text>
</g>
<!-- 4&#45;&gt;3 -->
<g id="edge6" class="edge">
<title>4-&gt;3</title>
<path fill="none" stroke="#c0c0c0" stroke-width="2" d="M137.0263,-287.8314C132.9387,-279.8771 128.0526,-270.369 123.5321,-261.5723"/>
<polygon fill="#c0c0c0" stroke="#c0c0c0" stroke-width="2" points="126.5091,-259.7078 118.8254,-252.4133 120.2831,-262.9074 126.5091,-259.7078"/>
</g>
<!-- 9 -->
<g id="node10" class="node">
<title>9</title>
<path fill="none" stroke="#68d856" stroke-width="2" d="M270.1714,-180C270.1714,-180 174.5546,-180 174.5546,-180 168.5546,-180 162.5546,-174 162.5546,-168 162.5546,-168 162.5546,-156 162.5546,-156 162.5546,-150 168.5546,-144 174.5546,-144 174.5546,-144 270.1714,-144 270.1714,-144 276.1714,-144 282.1714,-150 282.1714,-156 282.1714,-156 282.1714,-168 282.1714,-168 282.1714,-174 276.1714,-180 270.1714,-180"/>
<text text-anchor="middle" x="222.363" y="-159" font-family="sans" font-size="10.00" fill="#000000">move_recombinant_mask</text>
</g>
<!-- 4&#45;&gt;9 -->
<g id="edge12" class="edge">
<title>4-&gt;9</title>
<path fill="none" stroke="#c0c0c0" stroke-width="2" d="M155.9885,-287.7623C169.1227,-262.8764 192.764,-218.0822 207.9988,-189.2165"/>
<polygon fill="#c0c0c0" stroke="#c0c0c0" stroke-width="2" points="211.2434,-190.5671 212.8157,-180.0896 205.0527,-187.2998 211.2434,-190.5671"/>
</g>
<!-- 5 -->
<g id="node6" class="node">
<title>5</title>
<path fill="none" stroke="#56d8d0" stroke-width="2" d="M202.926,-396C202.926,-396 89.8,-396 89.8,-396 83.8,-396 77.8,-390 77.8,-384 77.8,-384 77.8,-372 77.8,-372 77.8,-366 83.8,-360 89.8,-360 89.8,-360 202.926,-360 202.926,-360 208.926,-360 214.926,-366 214.926,-372 214.926,-372 214.926,-384 214.926,-384 214.926,-390 208.926,-396 202.926,-396"/>
<text text-anchor="middle" x="146.363" y="-375" font-family="sans" font-size="10.00" fill="#000000">generate_alignment_from_vcf</text>
</g>
<!-- 5&#45;&gt;4 -->
<g id="edge7" class="edge">
<title>5-&gt;4</title>
<path fill="none" stroke="#c0c0c0" stroke-width="2" d="M146.363,-359.8314C146.363,-352.131 146.363,-342.9743 146.363,-334.4166"/>
<polygon fill="#c0c0c0" stroke="#c0c0c0" stroke-width="2" points="149.8631,-334.4132 146.363,-324.4133 142.8631,-334.4133 149.8631,-334.4132"/>
</g>
<!-- 6 -->
<g id="node7" class="node">
<title>6</title>
<path fill="none" stroke="#569ad8" stroke-width="2" d="M139.3974,-468C139.3974,-468 87.3286,-468 87.3286,-468 81.3286,-468 75.3286,-462 75.3286,-456 75.3286,-456 75.3286,-444 75.3286,-444 75.3286,-438 81.3286,-432 87.3286,-432 87.3286,-432 139.3974,-432 139.3974,-432 145.3974,-432 151.3974,-438 151.3974,-444 151.3974,-444 151.3974,-456 151.3974,-456 151.3974,-462 145.3974,-468 139.3974,-468"/>
<text text-anchor="middle" x="113.363" y="-447" font-family="sans" font-size="10.00" fill="#000000">convert_to_vcf</text>
</g>
<!-- 6&#45;&gt;5 -->
<g id="edge8" class="edge">
<title>6-&gt;5</title>
<path fill="none" stroke="#c0c0c0" stroke-width="2" d="M121.6903,-431.8314C125.336,-423.8771 129.6939,-414.369 133.7257,-405.5723"/>
<polygon fill="#c0c0c0" stroke="#c0c0c0" stroke-width="2" points="136.9387,-406.9622 137.9236,-396.4133 130.5753,-404.0456 136.9387,-406.9622"/>
</g>
<!-- 7 -->
<g id="node8" class="node">
<title>7</title>
<path fill="none" stroke="#56d86b" stroke-width="2" d="M96.5893,-540C96.5893,-540 12.1367,-540 12.1367,-540 6.1367,-540 .1367,-534 .1367,-528 .1367,-528 .1367,-516 .1367,-516 .1367,-510 6.1367,-504 12.1367,-504 12.1367,-504 96.5893,-504 96.5893,-504 102.5893,-504 108.5893,-510 108.5893,-516 108.5893,-516 108.5893,-528 108.5893,-528 108.5893,-534 102.5893,-540 96.5893,-540"/>
<text text-anchor="middle" x="54.363" y="-519" font-family="sans" font-size="10.00" fill="#000000">concatenate_sequences</text>
</g>
<!-- 7&#45;&gt;6 -->
<g id="edge10" class="edge">
<title>7-&gt;6</title>
<path fill="none" stroke="#c0c0c0" stroke-width="2" d="M69.2512,-503.8314C76.116,-495.454 84.3931,-485.3531 91.9141,-476.1749"/>
<polygon fill="#c0c0c0" stroke="#c0c0c0" stroke-width="2" points="94.6433,-478.3665 98.2744,-468.4133 89.2289,-473.9297 94.6433,-478.3665"/>
</g>
<!-- 8 -->
<g id="node9" class="node">
<title>8</title>
<path fill="none" stroke="#d85656" stroke-width="2" d="M220.2377,-540C220.2377,-540 138.4883,-540 138.4883,-540 132.4883,-540 126.4883,-534 126.4883,-528 126.4883,-528 126.4883,-516 126.4883,-516 126.4883,-510 132.4883,-504 138.4883,-504 138.4883,-504 220.2377,-504 220.2377,-504 226.2377,-504 232.2377,-510 232.2377,-516 232.2377,-516 232.2377,-528 232.2377,-528 232.2377,-534 226.2377,-540 220.2377,-540"/>
<text text-anchor="middle" x="179.363" y="-519" font-family="sans" font-size="10.00" fill="#000000">concatenate_reference</text>
</g>
<!-- 8&#45;&gt;5 -->
<g id="edge9" class="edge">
<title>8-&gt;5</title>
<path fill="none" stroke="#c0c0c0" stroke-width="2" d="M175.7491,-503.6742C172.0953,-485.4495 166.173,-456.7177 160.363,-432 158.3997,-423.6474 156.1185,-414.6087 153.9747,-406.3591"/>
<polygon fill="#c0c0c0" stroke="#c0c0c0" stroke-width="2" points="157.2952,-405.2237 151.3669,-396.4427 150.5254,-407.0041 157.2952,-405.2237"/>
</g>
<!-- 8&#45;&gt;6 -->
<g id="edge11" class="edge">
<title>8-&gt;6</title>
<path fill="none" stroke="#c0c0c0" stroke-width="2" d="M162.7084,-503.8314C154.9516,-495.3694 145.5828,-485.1489 137.102,-475.8971"/>
<polygon fill="#c0c0c0" stroke="#c0c0c0" stroke-width="2" points="139.5792,-473.4198 130.2418,-468.4133 134.4191,-478.1499 139.5792,-473.4198"/>
</g>
<!-- 9&#45;&gt;0 -->
<g id="edge3" class="edge">
<title>9-&gt;0</title>
<path fill="none" stroke="#c0c0c0" stroke-width="2" d="M220.0712,-143.7768C216.9694,-124.599 210.0353,-94.1757 195.363,-72 187.6218,-60.3 176.5945,-49.8062 165.8161,-41.25"/>
<polygon fill="#c0c0c0" stroke="#c0c0c0" stroke-width="2" points="167.7679,-38.3378 157.6809,-35.0968 163.5451,-43.9207 167.7679,-38.3378"/>
</g>
<!-- 10 -->
<g id="node11" class="node">
<title>10</title>
<path fill="none" stroke="#000000" stroke-width="2" d="M93.442,-612C93.442,-612 15.284,-612 15.284,-612 9.284,-612 3.284,-606 3.284,-600 3.284,-600 3.284,-588 3.284,-588 3.284,-582 9.284,-576 15.284,-576 15.284,-576 93.442,-576 93.442,-576 99.442,-576 105.442,-582 105.442,-588 105.442,-588 105.442,-600 105.442,-600 105.442,-606 99.442,-612 93.442,-612"/>
<text text-anchor="middle" x="54.363" y="-591" font-family="sans" font-size="10.00" fill="#000000">consensus_sequences</text>
</g>
<!-- 10&#45;&gt;7 -->
<g id="edge13" class="edge">
<title>10-&gt;7</title>
<path fill="none" stroke="#c0c0c0" stroke-width="2" d="M54.363,-575.8314C54.363,-568.131 54.363,-558.9743 54.363,-550.4166"/>
<polygon fill="#c0c0c0" stroke="#c0c0c0" stroke-width="2" points="57.8631,-550.4132 54.363,-540.4133 50.8631,-550.4133 57.8631,-550.4132"/>
</g>
<!-- 11 -->
<g id="node12" class="node">
<title>11</title>
<path fill="none" stroke="#000000" stroke-width="2" d="M211.334,-612C211.334,-612 139.392,-612 139.392,-612 133.392,-612 127.392,-606 127.392,-600 127.392,-600 127.392,-588 127.392,-588 127.392,-582 133.392,-576 139.392,-576 139.392,-576 211.334,-576 211.334,-576 217.334,-576 223.334,-582 223.334,-588 223.334,-588 223.334,-600 223.334,-600 223.334,-606 217.334,-612 211.334,-612"/>
<text text-anchor="middle" x="175.363" y="-591" font-family="sans" font-size="10.00" fill="#000000">background_dataset</text>
</g>
<!-- 11&#45;&gt;8 -->
<g id="edge14" class="edge">
<title>11-&gt;8</title>
<path fill="none" stroke="#c0c0c0" stroke-width="2" d="M176.3724,-575.8314C176.8002,-568.131 177.3089,-558.9743 177.7843,-550.4166"/>
<polygon fill="#c0c0c0" stroke="#c0c0c0" stroke-width="2" points="181.2799,-550.592 178.34,-540.4133 174.2906,-550.2037 181.2799,-550.592"/>
</g>
<!-- 12 -->
<g id="node13" class="node">
<title>12</title>
<path fill="none" stroke="#000000" stroke-width="2" d="M323.6902,-612C323.6902,-612 253.0358,-612 253.0358,-612 247.0358,-612 241.0358,-606 241.0358,-600 241.0358,-600 241.0358,-588 241.0358,-588 241.0358,-582 247.0358,-576 253.0358,-576 253.0358,-576 323.6902,-576 323.6902,-576 329.6902,-576 335.6902,-582 335.6902,-588 335.6902,-588 335.6902,-600 335.6902,-600 335.6902,-606 329.6902,-612 323.6902,-612"/>
<text text-anchor="middle" x="288.363" y="-591" font-family="sans" font-size="10.00" fill="#000000">reference_sequence</text>
</g>
<!-- 12&#45;&gt;8 -->
<g id="edge15" class="edge">
<title>12-&gt;8</title>
<path fill="none" stroke="#c0c0c0" stroke-width="2" d="M260.8577,-575.8314C247.045,-566.7074 230.1374,-555.539 215.3101,-545.7449"/>
<polygon fill="#c0c0c0" stroke="#c0c0c0" stroke-width="2" points="217.1326,-542.7541 206.8595,-540.1628 213.2744,-548.5949 217.1326,-542.7541"/>
</g>
</g>
</svg>